<svg width="350" height="464" viewBox="0 0 350 464" fill="none" xmlns="http://www.w3.org/2000/svg">
<path d="M332.493 16.6273L350 0V464L329.448 450.284C313.083 439.362 292.746 436.185 273.83 441.596L244.889 449.874C212.224 459.216 178.156 462.664 144.282 460.056L71.9177 454.483C53.5391 453.068 38.2312 439.835 34.1729 421.854L8.48925 308.058C-2.37703 259.913 -2.78673 209.998 7.28782 161.681L30.3792 50.9363C36.5664 21.2633 62.7206 0 93.0318 0H118.512C169.355 0 219.716 9.85658 266.807 29.0242C289.236 38.1538 314.934 33.3039 332.493 16.6273Z" fill="white"/>
</svg>
