<svg width="340" height="316" viewBox="0 0 340 316" fill="none" xmlns="http://www.w3.org/2000/svg">
<path d="M170 0C76.1922 0 0 70.8139 0 158C0 245.186 76.1922 316 170 316C263.808 316 340 245.186 340 158C340 70.8139 263.808 0 170 0ZM170 12.64C256.458 12.64 326.4 77.6451 326.4 158C326.4 238.355 256.458 303.36 170 303.36C83.5422 303.36 13.6 238.355 13.6 158C13.6 77.6451 83.5422 12.64 170 12.64ZM170 31.6C94.9698 31.6 34 88.2661 34 158C34 186.305 44.035 212.505 60.9742 233.581C61.5088 234.246 62.1792 234.807 62.947 235.232C63.7149 235.656 64.5652 235.936 65.4495 236.056C66.3337 236.175 67.2346 236.131 68.1006 235.927C68.9667 235.722 69.7809 235.361 70.4969 234.865C71.2128 234.368 71.8165 233.745 72.2734 233.031C72.7302 232.317 73.0314 231.527 73.1597 230.705C73.2879 229.883 73.2408 229.046 73.0209 228.241C72.801 227.436 72.4127 226.679 71.8781 226.014C56.6268 207.039 47.6 183.532 47.6 158C47.6 95.0972 102.32 44.24 170 44.24C237.68 44.24 292.4 95.0972 292.4 158C292.4 220.903 237.68 271.76 170 271.76C150.258 271.76 131.656 267.434 115.162 259.737C114.364 259.364 113.495 259.141 112.604 259.08C111.713 259.019 110.818 259.122 109.97 259.383C109.122 259.643 108.337 260.057 107.661 260.599C106.985 261.142 106.431 261.803 106.029 262.545C105.628 263.286 105.388 264.094 105.323 264.922C105.258 265.75 105.369 266.582 105.649 267.37C105.93 268.158 106.375 268.887 106.959 269.516C107.543 270.144 108.254 270.659 109.052 271.032C127.387 279.587 148.115 284.4 170 284.4C245.03 284.4 306 227.734 306 158C306 88.2661 245.03 31.6 170 31.6ZM169.894 82.2217C168.093 82.2479 166.376 82.9371 165.121 84.1382C163.866 85.3393 163.175 86.9541 163.2 88.6281V100.182C162.323 100.327 161.444 100.388 160.57 100.589C160.566 100.589 160.561 100.589 160.557 100.589C144.591 104.273 133.011 117.011 133.011 131.832C133.011 146.601 144.527 159.28 160.411 163.012C169.864 165.674 175.514 164.57 182.099 167.061C191.172 171.697 195.266 180.408 192.657 188.786C190.024 197.244 180.876 203.487 170.026 203.487C159.176 203.487 150.016 197.244 147.382 188.786C147.133 187.988 146.718 187.243 146.16 186.595C145.602 185.946 144.912 185.406 144.13 185.005C143.347 184.604 142.487 184.351 141.599 184.259C140.711 184.167 139.812 184.239 138.954 184.47C138.096 184.701 137.295 185.087 136.597 185.605C135.9 186.124 135.319 186.766 134.888 187.493C134.457 188.22 134.184 189.02 134.085 189.845C133.987 190.671 134.064 191.506 134.313 192.304C138.129 204.558 149.595 213.29 163.2 215.522V227.372C163.187 228.21 163.353 229.041 163.689 229.818C164.025 230.595 164.524 231.303 165.157 231.899C165.79 232.496 166.544 232.969 167.375 233.292C168.206 233.616 169.098 233.782 170 233.782C170.901 233.782 171.793 233.616 172.624 233.292C173.456 232.969 174.21 232.496 174.842 231.899C175.475 231.303 175.974 230.595 176.31 229.818C176.646 229.041 176.812 228.21 176.8 227.372V215.535C190.426 213.317 201.905 204.574 205.726 192.304C210.168 178.037 202.745 162.892 188.328 155.729C188.15 155.643 187.968 155.565 187.783 155.495C177.575 151.461 170.718 152.776 164.209 150.903C164.086 150.866 163.962 150.834 163.837 150.804C153.395 148.395 146.611 140.537 146.611 131.832C146.611 123.123 153.394 115.269 163.837 112.859C174.279 110.453 185.235 114.479 190.399 122.179C190.872 122.883 191.489 123.495 192.216 123.977C192.943 124.46 193.765 124.805 194.635 124.993C195.505 125.18 196.406 125.207 197.288 125.07C198.169 124.934 199.012 124.638 199.77 124.198C200.528 123.759 201.186 123.185 201.705 122.51C202.224 121.834 202.595 121.07 202.797 120.261C202.998 119.453 203.027 118.615 202.88 117.796C202.733 116.977 202.414 116.193 201.941 115.489C196.328 107.12 187.047 101.705 176.799 100.046V88.6285C176.812 87.783 176.642 86.9437 176.299 86.1604C175.956 85.3771 175.448 84.6657 174.804 84.0683C174.16 83.471 173.393 82.9998 172.55 82.6826C171.706 82.3655 170.803 82.2089 169.893 82.2221L169.894 82.2217ZM271.177 179.466C270.452 179.507 269.761 179.763 269.204 180.197C268.647 180.63 268.254 181.217 268.082 181.873C263.117 199.493 252.745 215.444 238.199 227.73C237.854 228.005 237.571 228.341 237.368 228.72C237.165 229.098 237.046 229.51 237.017 229.932C236.989 230.354 237.052 230.777 237.202 231.176C237.352 231.575 237.587 231.941 237.893 232.254C238.199 232.567 238.569 232.82 238.982 232.998C239.394 233.176 239.841 233.275 240.296 233.289C240.75 233.303 241.203 233.233 241.628 233.081C242.053 232.93 242.44 232.701 242.768 232.408C258.29 219.297 269.371 202.281 274.67 183.478C274.809 183.017 274.833 182.534 274.742 182.063C274.651 181.593 274.446 181.148 274.143 180.762C273.84 180.376 273.447 180.058 272.993 179.834C272.539 179.609 272.036 179.484 271.522 179.466C271.407 179.46 271.292 179.46 271.177 179.466H271.177ZM226.831 236.63C226.182 236.642 225.551 236.826 225.011 237.161C223.601 238.006 222.158 238.82 220.695 239.605C219.913 240.024 219.342 240.714 219.108 241.525C218.874 242.335 218.996 243.198 219.446 243.925C219.897 244.652 220.64 245.182 221.512 245.4C222.384 245.617 223.313 245.504 224.095 245.085C225.655 244.248 227.186 243.371 228.69 242.468C229.32 242.102 229.803 241.554 230.066 240.908C230.329 240.263 230.357 239.555 230.146 238.893C229.935 238.231 229.497 237.651 228.898 237.243C228.3 236.834 227.573 236.619 226.831 236.63V236.63ZM85.1595 242.061C83.7496 242.019 82.3604 242.385 81.1845 243.11C80.0086 243.834 79.1041 244.88 78.5963 246.103C78.0885 247.326 78.0026 248.666 78.3504 249.937C78.6982 251.207 79.4626 252.346 80.5376 253.195C82.2847 254.614 84.0658 255.994 85.89 257.33C86.5889 257.864 87.3953 258.262 88.262 258.502C89.1287 258.742 90.0381 258.82 90.9373 258.729C91.8364 258.639 92.7071 258.382 93.4984 257.976C94.2897 257.569 94.9857 257.019 95.5456 256.359C96.1056 255.699 96.5183 254.942 96.7596 254.132C97.0009 253.322 97.066 252.475 96.9509 251.641C96.8359 250.808 96.5431 250.004 96.0897 249.276C95.6363 248.549 95.0313 247.913 94.3103 247.406C92.6676 246.203 91.0625 244.956 89.4892 243.678C88.2963 242.681 86.7628 242.109 85.1595 242.061V242.061Z" fill="white" fill-opacity="0.2"/>
</svg>
