<svg width="163" height="192" viewBox="0 0 163 192" fill="none" xmlns="http://www.w3.org/2000/svg">
<path d="M110.314 34.5542L98.8259 37.9016L96.0734 45.5646L103.362 53.4684L109.882 75.8458L121.37 72.4984L110.314 34.5542Z" fill="#070707"/>
<path d="M26.1603 60.1301L36.2123 57.2012L42.0758 62.3536L40.7482 72.768L47.2685 95.1454L37.2165 98.0743L26.1603 60.1301Z" fill="#070707"/>
<path d="M52.9112 18.7006C45.1482 22.5437 42.4606 24.3403 37.7201 28.6811C27.2986 38.2852 21.0923 52.3369 21.3898 65.9528C21.513 71.9575 22.083 74.6292 27.1243 91.9305L32.0566 108.858L38.1685 107.077L44.3189 105.285L39.2136 87.1917C33.6946 67.6783 33.7702 68.2238 34.3729 61.5617C35.2026 51.6713 41.1428 41.1432 49.3608 35.1405C54.0224 31.6741 55.8573 30.8152 62.1614 28.9783C68.4655 27.1414 70.4746 26.8803 76.2686 27.3002C86.4247 27.949 97.0904 33.6385 103.103 41.5352C107.19 46.8308 106.961 46.33 112.787 65.7539L118.2 83.7577L124.35 81.9656L130.462 80.1848L125.53 63.2571C119.857 43.7885 118.531 40.5262 113.738 34.3822C103.288 20.846 86.4802 13.5409 68.8784 14.8184C65.8981 15.0382 54.9165 17.7109 52.9112 18.7006Z" fill="#E03AA0"/>
<path d="M57.1958 30.1705C50.6023 33.4336 48.3195 34.959 44.2929 38.6441C35.4408 46.7975 30.1678 58.7253 30.4183 70.2823C30.522 75.3789 31.0057 77.6465 35.2844 92.3309L39.4707 106.698L44.6616 105.185L49.8852 103.663L45.5523 88.3068C40.8682 71.7449 40.9322 72.2079 41.4451 66.5532C42.1513 58.1582 47.1978 49.2212 54.178 44.1249C58.1375 41.182 59.696 40.4526 65.0501 38.8925C70.4043 37.3324 72.1106 37.1105 77.0312 37.466C85.6564 38.0151 94.7136 42.8426 99.8186 49.5443C103.289 54.0385 103.094 53.6135 108.039 70.0993L112.633 85.3798L117.857 83.8578L123.048 82.3452L118.862 67.9781C114.047 51.4543 112.921 48.6855 108.852 43.4713C99.9793 31.9837 85.7058 25.7858 70.7568 26.8728C68.2257 27.0598 58.899 29.3301 57.1958 30.1705Z" fill="#992B6F"/>
<rect x="78.0166" y="122.074" width="71.1965" height="46.6159" transform="rotate(-16.2451 78.0166 122.074)" fill="#070707"/>
<path d="M26.5369 125.049C24.3739 117.625 28.6382 109.854 36.0615 107.691L81.2594 94.5215L104.64 174.763L59.4422 187.932C52.0189 190.095 44.2477 185.831 42.0847 178.408L26.5369 125.049Z" fill="#07C8F3"/>
<path d="M80.5854 94.7178L125.783 81.548C133.207 79.385 140.978 83.6493 143.141 91.0726L158.689 144.432C160.852 151.855 156.587 159.626 149.164 161.789L103.966 174.959L80.5854 94.7178Z" fill="#03829E"/>
<path d="M82.2011 108.963C79.1376 111.003 77.001 114.431 76.3168 118.36C75.992 120.271 76.0257 120.835 76.6678 123.039C77.7253 126.556 78.7897 127.967 81.9343 129.793C83.6785 130.846 84.5288 131.523 84.6829 132.052C84.8028 132.463 84.9605 137.039 85.0013 142.224C85.0942 150.389 85.2254 152.072 85.8711 154.849L86.6151 158.074L98.7473 154.539L110.879 151.004L109.813 147.904C108.849 145.157 108.137 143.834 103.718 136.738C100.981 132.276 98.6253 128.34 98.514 127.958C98.3856 127.517 98.7653 126.355 99.6359 124.635C101.299 121.377 101.469 119.606 100.45 116.109C99.8084 113.906 99.5338 113.412 98.1772 111.894C95.4811 108.919 91.3864 107.083 87.7578 107.184C85.5867 107.243 84.0298 107.729 82.2011 108.963Z" fill="#070707"/>
</svg>
