<svg width="254" height="343" viewBox="0 0 254 343" fill="none" xmlns="http://www.w3.org/2000/svg">
<path d="M220.425 65.9026L195.578 65.8268L185.598 79.4743L195.476 99.4952L195.328 147.894L220.175 147.969L220.425 65.9026Z" fill="#070707"/>
<path d="M37.7956 67.4492L59.5365 67.5155L68.1911 81.2198L59.4338 101.184L59.2862 149.582L37.5453 149.516L37.7956 67.4492Z" fill="#070707"/>
<path d="M115.396 0.631877C97.6776 3.72986 91.2698 5.73084 79.2799 11.5942C52.8851 24.6067 32.2754 48.9518 24.8759 76.2467C21.5968 88.2791 21.1639 93.9352 21.0497 131.355L20.9381 167.967L34.1571 168.007L47.4592 168.047L47.9108 129.012C48.3718 86.9059 48.2021 88.0369 53.313 75.1211C60.7709 55.9085 78.7823 38.4253 98.6744 31.2929C109.994 27.1247 114.153 26.4908 127.788 26.5324C141.422 26.574 145.577 27.2332 156.871 31.4703C176.719 38.7239 194.624 56.3167 201.964 75.5745C206.996 88.5212 206.834 87.3892 207.038 129.498L207.251 168.535L220.553 168.575L233.772 168.616L233.884 132.004C234.013 89.8967 233.286 82.6206 227.346 67.5698C214.478 34.4748 185.287 10.0586 149.478 2.27142C143.413 0.959786 119.971 -0.16238 115.396 0.631877Z" fill="#E03AA0"/>
<path d="M117.197 25.9925C102.149 28.6218 96.707 30.3201 86.5238 35.2966C64.1063 46.3408 46.6022 67.0034 40.3178 90.1696C37.5328 100.382 37.1651 105.183 37.0682 136.942L36.9735 168.016L48.2006 168.05L59.4983 168.085L59.8818 134.954C60.2732 99.2166 60.1291 100.176 64.4698 89.2144C70.8039 72.9078 86.1013 58.0692 102.996 52.0156C112.61 48.478 116.142 47.94 127.722 47.9753C139.302 48.0106 142.831 48.5701 152.423 52.1664C169.281 58.3228 184.487 73.2545 190.722 89.5994C194.996 100.588 194.857 99.627 195.031 135.366L195.212 168.498L206.51 168.533L217.737 168.567L217.832 137.493C217.941 101.755 217.324 95.5798 212.279 82.8056C201.349 54.7165 176.557 33.9935 146.144 27.3841C140.993 26.2709 121.083 25.3184 117.197 25.9925Z" fill="#992B6F"/>
<rect x="104.724" y="221.267" width="147.839" height="96.7972" transform="rotate(0.174739 104.724 221.267)" fill="#070707"/>
<path d="M0.4866 181.904C0.510181 174.172 6.79728 167.923 14.5292 167.947L127.355 168.291L126.826 341.839L13.9999 341.495C6.26799 341.472 0.0191279 335.184 0.0427087 327.452L0.4866 181.904Z" fill="#07C8F3"/>
<path d="M125.898 168.287L238.724 168.631C246.456 168.654 252.704 174.941 252.681 182.673L252.237 328.222C252.213 335.954 245.926 342.202 238.194 342.179L125.368 341.835L125.898 168.287Z" fill="#03829E"/>
<path d="M120.754 197.608C113.455 199.874 107.187 205.447 103.518 212.871C101.749 216.488 101.485 217.631 101.471 222.397C101.513 230.023 102.804 233.459 107.997 238.94C110.852 242.063 112.149 243.91 112.145 245.054C112.143 245.943 109.77 255.151 106.809 265.5C102.201 281.819 101.475 285.248 101.131 291.157L100.719 298.02L126.959 298.1L153.199 298.18L152.894 291.379C152.587 285.341 151.945 282.288 147.308 265.56C144.475 255.066 142.094 245.844 142.097 245.018C142.1 244.065 143.539 241.972 146.282 239.057C151.508 233.544 152.886 230.117 152.909 222.554C152.923 217.788 152.666 216.643 150.855 212.825C147.232 205.315 140.153 199.256 132.866 197.327C128.507 196.17 125.121 196.223 120.754 197.608Z" fill="#070707"/>
</svg>
